<svg xmlns="http://www.w3.org/2000/svg" viewBox="0 0 110 11"><path fill-rule="evenodd" clip-rule="evenodd" d="M83.6772 6.5638h-.0512v2.0336c0 1.2262-.3711 1.6615-1.4146 1.6615h-6.1532c-1.0445 0-1.4155-.4353-1.4155-1.6615V6.5638H73.975v2.0336c0 1.6327.6619 2.393 2.0832 2.393h6.1532c1.4204 0 2.0823-.7603 2.0823-2.393V6.5638h-.6165zM82.2114.0223h-6.1532c-1.4213 0-2.0832.7594-2.0832 2.3921v2.0757H74.6427V2.4144c0-1.2262.371-1.6615 1.4155-1.6615h6.1532c1.0435 0 1.4146.4353 1.4146 1.6615v2.0757H84.2937V2.4144c0-1.6327-.6619-2.392-2.0823-2.392zm9.8113 5.113L88.32.0357l-.0165-.0153h-.0318L85.769.0127v.6318h1.9355v9.7122H85.769v.6318h4.5173v-.6318h-1.9354V1.1852l3.6805 5.047 3.5916-5.0096v9.1341h-1.9345v.6318h4.5173v-.6318h-1.9354V.6445h1.9354V.0204L95.6626.0127l-3.6399 5.1226zM110 2.5247V.0022L99.6803.0175V.634h1.8877v9.739h-1.8877v.6155L110 10.9809V8.4613h-.639l.054 1.9568-7.209-.0451V5.8276h3.482V5.211h-3.482V.6263l7.209-.0086-.054 1.907H110zM68.0789.6216h1.8871V5.168h-5.842V.6216h1.8948V.0022h-4.4303v.6194h1.8958v9.7591h-1.8958V11h4.4303v-.6193H64.124V5.7883h5.842v4.5924h-1.8871V11h4.4206v-.6193h-1.8852V.6216h1.8852V.0022h-4.4206v.6194zm-29.413 4.365c.6503 0 .9807-.3048.9807-.9088V2.8017c0-.6194-.3246-.9252-.9807-.9252h-6.0797v3.1102h6.0797zm3.8147 5.4727c.2464.2033.1363.5312-.171.5312h-2.1809c-.199 0-.3536-.0566-.4754-.1592l-4.724-3.997-.0145-.0058h-2.3316v3.8139c0 .1927-.1575.3481-.3507.3481h-1.6591c-.1942 0-.3517-.1554-.3517-.3481V.4174c0-.2292.1884-.4152.4193-.4152h8.9843c1.663 0 2.4137.6606 2.4137 2.1246l-.0019 2.578c0 1.464-.7459 2.1237-2.4002 2.1237l.001-.001-1.4591.001 4.3018 3.6308zm-32.474-3.1006c0-.6184-.3237-.9242-.9808-.9242H2.3597V9.115h6.6662c.6523 0 .9808-.3068.9808-.9108v-.8456zM2.3596 4.558h6.6102c.6513 0 .9817-.3058.9817-.9098v-.8447c0-.6194-.3256-.9262-.9817-.9262H2.3596v2.6807zm10.0675 2.6635v1.6165c0 1.4026-.9798 2.1524-2.8138 2.1524H.404c-.2232 0-.4039-.1793-.4039-.4008V.403C0 .1815.1807.0022.4039.0022h9.537c1.6542 0 2.4002.6606 2.4002 2.1246l-.001 1.5493c0 .9099-.6899 1.6577-1.5789 1.7603l-.0154.0086.0087.0096c.9334.0585 1.6726.8265 1.6726 1.767zM25.2957.0022h.0029c-.086-.003-7.9166-.003-7.9977 0h.0029c-1.6543 0-2.3993.6605-2.3993 2.1245v2.3116h2.5152V1.912h7.7533v2.5263h2.5161v-.8974l.0058-1.4142c0-1.464-.745-2.1245-2.3992-2.1245zm-.1218 6.5502v2.5282h-7.7533V6.5524h-2.5161l-.0039 2.3125c0 1.465.746 2.1255 2.4002 2.1255h-.0029c.086.0029 7.9166.0029 7.9968 0h-.0019c1.6542 0 2.3992-.6605 2.3992-2.1255l-.0029-2.3125h-2.5152zm32.0451 3.8983c.2542.1793.1546.5398-.1488.5398h-2.5673a.6723.6723 0 0 1-.3875-.1218L46.9496 5.865v4.7774c0 .1927-.1565.3481-.3507.3481H44.933a.3486.3486 0 0 1-.3497-.3481V.3502c0-.1927.1565-.348.3497-.348h1.6659c.1942 0 .3507.1553.3507.348v4.3182L53.7424.1163c.1102-.0748.2426-.1141.3943-.1141h2.5548c.3072 0 .3981.3643.142.5311l-7.1155 4.648 7.501 5.2694z" fill="#FEFEFE"></path></svg>